<svg width="100%" height="100%" viewBox="0 0 600 600" version="1.1"
    xmlns="http://www.w3.org/2000/svg" xmlns:xlink="http://www.w3.org/1999/xlink"
    xml:space="preserve"
    style="fill-rule:evenodd;clip-rule:evenodd;stroke-linecap:round;stroke-linejoin:round;stroke-miterlimit:1.5;">
    <rect id="BG" x="0" y="0" width="600" height="600" style="fill:rgb(123,140,222);"/>
    <g id="Outline" transform="matrix(1,0,0,1,17.5,-3.5)">
        <path d="M518,116.411L518,490.589C518,517.308 496.308,539 469.589,539L95.411,539C68.692,539 47,517.308 47,490.589L47,116.411C47,89.692 68.692,68 95.411,68L469.589,68C496.308,68 518,89.692 518,116.411Z" style="fill:rgb(235,235,235);stroke:black;stroke-width:18px;"/>
    </g>
    <g id="Content" transform="matrix(0.806794,0,0,0.696179,72.0807,115.16)">
        <path d="M518,102.645L518,504.355C518,523.476 504.604,539 488.105,539L76.895,539C60.396,539 47,523.476 47,504.355L47,102.645C47,83.524 60.396,68 76.895,68L488.105,68C504.604,68 518,83.524 518,102.645Z" style="fill:rgb(192,230,222);stroke:black;stroke-width:23.89px;"/>
    </g>
    <g transform="matrix(1,0,0,1,-55.9842,128)">
        <path d="M196.419,235L196.419,140.94L241.702,140.94C250.481,140.94 258.073,142.374 264.478,145.24C270.883,148.107 275.832,152.205 279.326,157.535C282.819,162.865 284.566,169.158 284.566,176.414C284.566,183.67 282.819,189.919 279.326,195.159C275.832,200.4 270.883,204.408 264.478,207.185C258.073,209.962 250.481,211.351 241.702,211.351L214.021,211.351L228.13,198.317L228.13,235L196.419,235ZM252.72,235L229.608,200.735L263.201,200.735L286.582,235L252.72,235ZM228.13,201.81L214.021,187.433L239.686,187.433C244.076,187.433 247.323,186.447 249.428,184.477C251.533,182.506 252.586,179.818 252.586,176.414C252.586,173.01 251.533,170.323 249.428,168.352C247.323,166.381 244.076,165.396 239.686,165.396L214.021,165.396L228.13,151.018L228.13,201.81Z" style="fill-rule:nonzero;"/>
        <path d="M296.525,235L296.525,140.94L322.593,140.94L360.217,202.348L346.511,202.348L383.06,140.94L409.128,140.94L409.397,235L380.507,235L380.238,184.477L384.807,184.477L359.814,226.535L345.839,226.535L319.771,184.477L325.415,184.477L325.415,235L296.525,235Z" style="fill-rule:nonzero;"/>
        <path d="M473.357,237.15C465.832,237.15 458.867,235.963 452.462,233.589C446.057,231.215 440.503,227.834 435.8,223.444C431.098,219.055 427.447,213.859 424.849,207.857C422.251,201.855 420.953,195.226 420.953,187.97C420.953,180.714 422.251,174.085 424.849,168.083C427.447,162.081 431.098,156.886 435.8,152.496C440.503,148.107 446.057,144.725 452.462,142.351C458.867,139.977 465.832,138.79 473.357,138.79C482.584,138.79 490.758,140.403 497.88,143.628C505.001,146.853 510.891,151.511 515.55,157.602L495.528,175.474C492.751,171.98 489.683,169.27 486.324,167.344C482.965,165.418 479.18,164.455 474.97,164.455C471.655,164.455 468.654,164.993 465.967,166.068C463.279,167.143 460.973,168.71 459.047,170.771C457.121,172.831 455.62,175.317 454.545,178.228C453.47,181.14 452.933,184.387 452.933,187.97C452.933,191.553 453.47,194.801 454.545,197.712C455.62,200.623 457.121,203.109 459.047,205.17C460.973,207.23 463.279,208.798 465.967,209.873C468.654,210.948 471.655,211.485 474.97,211.485C479.18,211.485 482.965,210.522 486.324,208.596C489.683,206.67 492.751,203.96 495.528,200.467L515.55,218.338C510.891,224.34 505.001,228.976 497.88,232.245C490.758,235.515 482.584,237.15 473.357,237.15Z" style="fill-rule:nonzero;"/>
    </g>
    <g id="Buttons">
        <g transform="matrix(1.54545,0,0,1.54545,-60,-56.5455)">
            <circle cx="121" cy="111" r="11"/>
        </g>
        <g transform="matrix(1.54545,0,0,1.54545,-15.2403,-56.5455)">
            <circle cx="121" cy="111" r="11"/>
        </g>
        <g transform="matrix(1.54545,0,0,1.54545,29.5195,-56.5455)">
            <circle cx="121" cy="111" r="11"/>
        </g>
    </g>
</svg>